<svg width="187" height="39" viewBox="0 0 187 39" fill="none" xmlns="http://www.w3.org/2000/svg">
<path  d="M21.4734 19.5753V38.6903L40.5724 19.5863V0.471298L21.4734 19.5753Z" fill="#A4A9AD"/>
<path  d="M20.0551 19.5753V38.6903L0.956085 19.5863V0.471298L20.0551 19.5753Z" fill="#5D6770"/>
<path  d="M32.0893 2.7693H12.9903V12.5093L17.6713 17.1913L32.0893 2.7693Z" fill="#FEFEFE"/>
<path  d="M12.9908 21.8733L32.0898 2.7693H12.9908V21.8733Z" fill="#29B573"/>
<path  d="M182.175 10.0946V14.4316H186.886V16.9356H182.175V26.6936C182.175 28.9376 182.81 30.2086 184.643 30.2086C185.54 30.2086 186.063 30.1336 186.549 29.9836L186.699 32.4516C186.063 32.7126 185.054 32.9376 183.783 32.9376C182.25 32.9376 181.016 32.4136 180.231 31.5166C179.297 30.5446 178.96 28.9376 178.96 26.8066V16.9356H176.157V14.4316H178.96V11.1036L182.175 10.0946Z" fill="#5D6770"/>
<path  d="M157.614 19.3286C157.614 17.4596 157.577 15.9266 157.465 14.4316H160.381L160.567 17.4216H160.642C161.539 15.7026 163.633 14.0196 166.623 14.0196C169.128 14.0196 173.016 15.5156 173.016 21.7216V32.5256H169.727V22.0956C169.727 19.1796 168.643 16.7496 165.54 16.7496C163.372 16.7496 161.689 18.2816 161.128 20.1146C160.979 20.5256 160.904 21.0856 160.904 21.6466V32.5256H157.614V19.3286Z" fill="#5D6770"/>
<path  d="M150.362 21.7213C150.399 19.6283 149.502 16.3753 145.801 16.3753C142.473 16.3753 141.016 19.4413 140.754 21.7213H150.362ZM140.716 24.0763C140.791 28.5253 143.633 30.3573 146.923 30.3573C149.278 30.3573 150.699 29.9463 151.933 29.4233L152.493 31.7783C151.334 32.3013 149.353 32.9373 146.474 32.9373C140.904 32.9373 137.577 29.2363 137.577 23.7783C137.577 18.3193 140.791 14.0203 146.063 14.0203C151.97 14.0203 153.54 19.2173 153.54 22.5443C153.54 23.2163 153.465 23.7403 153.427 24.0763H140.716Z" fill="#5D6770"/>
<path  d="M134.026 14.4338V32.5258H130.801V19.3258L134.026 14.4338Z" fill="#5D6770"/>
<path  d="M128.948 16.9367L133.325 14.4337H126.265V14.4317H121.554V10.0947L118.339 11.1037V14.4317H115.535V16.9357H118.339V26.8057C118.339 28.9367 118.676 30.5447 119.61 31.5167C120.396 32.4137 121.629 32.9377 123.162 32.9377C124.433 32.9377 125.443 32.7127 126.078 32.4517L125.929 29.9837C125.443 30.1327 124.919 30.2077 124.021 30.2077C122.19 30.2077 121.554 28.9367 121.554 26.6937V16.9367H128.948Z" fill="#5D6770"/>
<path  d="M99.432 23.5163C99.432 27.4793 101.713 30.4693 104.928 30.4693C108.068 30.4693 110.424 27.5163 110.424 23.4413C110.424 20.3763 108.891 16.4873 105.003 16.4873C101.115 16.4873 99.432 20.0763 99.432 23.5163ZM113.788 23.3293C113.788 30.0213 109.153 32.9373 104.778 32.9373C99.881 32.9373 96.105 29.3483 96.105 23.6283C96.105 17.5723 100.068 14.0203 105.077 14.0203C110.274 14.0203 113.788 17.7963 113.788 23.3293Z" fill="#5D6770"/>
<path  d="M92.3027 27.591C92.3027 29.46 92.3397 31.105 92.4517 32.526H89.5367L89.3487 29.573H89.2747C88.4147 31.03 86.5077 32.937 83.2927 32.937C80.4517 32.937 77.0497 31.367 77.0497 25.012V14.432H80.3397V24.451C80.3397 27.89 81.3857 30.208 84.3767 30.208C86.5827 30.208 88.1157 28.675 88.7137 27.217C88.9007 26.731 89.0127 26.133 89.0127 25.535V14.432H92.3027V27.591Z" fill="#5D6770"/>
<path  d="M53.6166 20.1143C53.5796 14.6553 56.2706 9.5713 61.7666 9.5713C67.1126 9.5713 69.7296 14.7683 69.7296 19.8143C69.7296 24.8733 67.4776 29.1223 63.4326 30.0793C62.8736 30.2123 62.2806 30.2823 61.6546 30.2823H61.6166C60.6816 30.2823 59.8186 30.1183 59.0336 29.8183C55.5486 28.4893 53.5866 24.4773 53.6166 20.1143ZM62.1086 32.9273V32.9283L74.3616 32.9373L68.2826 30.5843C71.2266 28.5783 73.1686 24.8753 73.1686 19.6653C73.1686 12.2253 68.7206 6.9173 61.8786 6.9173C55.0746 6.9173 50.1396 12.1133 50.1396 20.1883C50.1396 28.2293 55.1716 32.6323 61.0846 32.9273H61.4136H62.1086Z" fill="#5D6770"/>
</svg>
